<?xml version="1.0" standalone="no"?><!DOCTYPE svg PUBLIC "-//W3C//DTD SVG 1.1//EN" "http://www.w3.org/Graphics/SVG/1.1/DTD/svg11.dtd"><svg t="1724937080322" class="icon" viewBox="0 0 1024 1024" version="1.1" xmlns="http://www.w3.org/2000/svg" p-id="4324" xmlns:xlink="http://www.w3.org/1999/xlink" width="200" height="200"><path d="M498.756267 426.666667c-35.566933 0-72.567467-3.2768-95.300267-22.3232-18.978133-14.336-29.354667-30.993067-40.277333-49.9712-3.822933-6.007467-71.68-126.907733-75.434667-133.393067H0c35.498667 63.488 71.133867 127.863467 107.178667 190.805333 31.266133 55.569067 61.098667 107.451733 115.643733 145.408 26.077867 18.978133 53.589333 31.470933 85.8112 39.389867 31.744 7.3728 63.965867 8.328533 96.733867 8.328533h256L560.810667 426.5984h-62.122667zM599.722667 426.120533l100.488533 178.7904H1010.346667l-101.034667-178.7904zM893.610667 397.448533l-100.488534-177.834666H483.054933l100.078934 177.834666z" fill="#000000" p-id="4325" data-spm-anchor-id="a313x.search_index.0.i0.4f593a814mzCMj" class="selected"></path></svg>